{"title":"My.Girlfriends.Boyfriend.2010.DvDRip.Ac3.Feel-Free","uid":5907801,"size":851354602,"categoryP":"video","categoryS":"movies","magnet":"?xt=urn:btih:65cc0677f06b18fdeea6398156698b543b3453ca&amp;dn=My.Girlfriends.Boyfriend.2010.DvDRip.Ac3.Feel-Free&amp;tr=udp%3A%2F%2Ftracker.openbittorrent.com%3A80&amp;tr=udp%3A%2F%2Fopen.demonii.com%3A1337&amp;tr=udp%3A%2F%2Ftracker.coppersurfer.tk%3A6969&amp;tr=udp%3A%2F%2Fexodus.desync.com%3A6969","seeders":0,"leechers":1,"uploader":"HeroMaster","files":-1,"time":1287943502,"description":"Genre:Comedy | Romance\nLanguage:English\nIMDb:http://www.imdb.com/title/tt1447793/\nSource:DVD\n\nGeneral\nComplete name :My.Girlfriends.Boyfriend.2010.DvDRip.Ac3.Feel-Free\nFormat : AVI\nFormat/Info : Audio Video Interleave\nFile size : 812 MiB\nDuration : 1h 20mn\nOverall bit rate : 1 401 Kbps\nVideo #0\nMuxing mode : Packed bitstream\nCodec ID : XVID\nCodec ID/Hint : XviD\nDuration : 1h 20mn\nBit rate : 944 Kbps\nWidth : 720 pixels\nHeight : 384 pixels\nDisplay aspect ratio : 1.875\nFrame rate : 25.000 fps\nResolution : 24 bits\nColorimetry : 4:2:0\nScan type : Progressive\nBits/(Pixel*Frame) : 0.137\nStream size : 547 MiB (67%)\nAudio #1\nID : 1\nFormat : AC-3\nFormat/Info : Audio Coding 3\nCodec ID : 2000\nDuration : 1h 20mn\nBit rate mode : Constant\nBit rate : 448 Kbps\nChannel(s) : 6 channels\nChannel positions : Front: L C R, Surround: L R, LFE\nSampling rate : 48.0 KHz\nStream size : 260 MiB (32%)\nAlignment : Split accross interleaves\nInterleave, duration : 40 ms (1.00 video frame)\nInterleave, preload duration : 500 ms\n\nPlot:\nJesse (Alyssa Milano, Charmed) is a sassy, intelligent woman who has yet to find &quot;Mr. Right&quot;until she bumps into Ethan (Christopher Gorham.\n\n\nScreenshots:\n\n &lt;a href=&quot;\nhttp://www.postimg.com/image/23000/22974.jpg&quot; rel=&quot;nofollow&quot; target=&quot;_NEW&quot;&gt;\nhttp://www.postimg.com/image/23000/22974.jpg&lt;/a&gt;\n &lt;a href=&quot;\nhttp://www.postimg.com/image/23000/22975.jpg&quot; rel=&quot;nofollow&quot; target=&quot;_NEW&quot;&gt;\nhttp://www.postimg.com/image/23000/22975.jpg&lt;/a&gt;\n\n\nENJOY!","torrent":{"xt":"urn:btih:65cc0677f06b18fdeea6398156698b543b3453ca","amp;dn":"My.Girlfriends.Boyfriend.2010.DvDRip.Ac3.Feel-Free","amp;tr":["udp%3A%2F%2Ftracker.openbittorrent.com%3A80","udp%3A%2F%2Fopen.demonii.com%3A1337","udp%3A%2F%2Ftracker.coppersurfer.tk%3A6969","udp%3A%2F%2Fexodus.desync.com%3A6969"],"infoHash":"65cc0677f06b18fdeea6398156698b543b3453ca","infoHashBuffer":{"type":"Buffer","data":[101,204,6,119,240,107,24,253,238,166,57,129,86,105,139,84,59,52,83,202]},"announce":[],"urlList":[]}}